<svg xmlns="http://www.w3.org/2000/svg" version="1.1" xmlns:xlink="http://www.w3.org/1999/xlink" xmlns:svgjs="http://svgjs.dev/svgjs" width="100%" height="100%" viewBox="0 0 1000 600"><rect width="1000" height="600" x="0" y="0" fill="orange"/><g><rect width="333.3333333333333" height="333.3333333333333" rx="13.333333333333334" ry="13.333333333333334" y="132.82830097266407" fill="orange" transform="matrix(1.1301370401609827,0,0,1.1301370401609827,0,-38.4703391832699)" x="110.60605621337889"/><path d="M158.93313536744205 371.62440988716025Q156.17516159438077 371.62440988716025 152.40405459856225 372.13097649853887L152.40405459856225 372.13097649853887Q151.53163432341017 372.21540426710203 148.9988012665172 372.4124023937492Q146.46596820962412 372.60940052039643 144.1864184584204 372.60940052039643L144.1864184584204 372.60940052039643Q141.23144655871192 372.60940052039643 130.73426066736636 371.62440988716025L130.73426066736636 371.62440988716025Q129.55227190748298 371.62440988716025 128.82056457993605 371.23041363386585Q128.06071466286818 370.83641738057133 127.66671840957369 369.45743049404064Q127.27272215627922 368.050301017989 127.27272215627922 365.09532911828046L127.27272215627922 365.09532911828046Q127.27272215627922 360.8457981006044 127.63857582005265 356.00527270298664Q127.97628689430506 351.13660471584774 128.5672812742468 345.3110886849938L128.5672812742468 345.3110886849938L129.15827565418846 339.06343381132433Q129.15827565418846 331.0709383873508 128.87684975897815 321.36174500259426Q128.5672812742468 311.68069420735867 128.45471091616264 308.61315194956603L128.45471091616264 308.61315194956603Q127.66671840957369 288.4067726734638 127.66671840957369 278.2191552668497L127.66671840957369 278.2191552668497Q127.66671840957369 267.3561157117307 128.11699984191023 261.84016816560813Q128.5672812742468 256.3523632090065 130.00255333981949 253.79138756259252Q131.43782540539218 251.20226932665742 134.39279730510071 251.20226932665742L134.39279730510071 251.20226932665742Q136.19392303444687 251.20226932665742 138.02319135331408 252.83453951887736Q139.85245967218123 254.46680971109728 141.03444843206466 257.1122131260745Q142.21643719194805 259.7294739515306 142.21643719194805 262.600018082676L142.21643719194805 262.600018082676Q142.21643719194805 267.1309749955624 141.62544281200638 272.7876354892902L141.62544281200638 272.7876354892902L141.23144655871192 277.4311627602607Q141.23144655871192 296.4274106869584 141.42844468535912 305.9396059450678L141.42844468535912 305.9396059450678L142.61043344524256 350.5456103359061Q146.26897008297692 350.6581806939902 153.19204710515118 351.0521769472847L153.19204710515118 351.0521769472847Q170.02131563872928 351.8401694538736 179.2239424121073 351.8401694538736L179.2239424121073 351.8401694538736Q179.92750715013312 351.8401694538736 182.99504940792582 351.4461732005792L182.99504940792582 351.4461732005792Q184.06446780972504 351.24917507393195 190.7905467052521 350.3486122092588L190.7905467052521 350.3486122092588Q193.57666306783443 350.46118256734303 195.5466443343068 353.8664358993881Q197.51662560077915 357.27168923143313 197.51662560077915 361.6337906071933L197.51662560077915 361.6337906071933Q197.51662560077915 363.913340358397 196.2502090723326 366.53060118385315Q194.95564995436507 369.1478620093093 193.07009645645581 370.89270255961344Q191.18454295854656 372.60940052039643 189.5241301768056 372.60940052039643L189.5241301768056 372.60940052039643Q183.78304191451474 372.60940052039643 175.84683166958325 372.13097649853887L175.84683166958325 372.13097649853887Q174.07384852975815 372.0184061404548 168.8393268788459 371.8214080138075Q163.60480522793364 371.62440988716025 158.93313536744205 371.62440988716025L158.93313536744205 371.62440988716025ZM227.7136241568482 283.6788176339302Q227.7136241568482 287.731350524959 225.71550030085479 297.8063975734891L225.71550030085479 297.8063975734891Q224.33651341432414 305.2360412070419 223.66109126581938 310.27356473130703Q222.9575265277935 315.3392308450931 222.9575265277935 320.3767543693581L222.9575265277935 320.3767543693581Q222.9575265277935 327.60939987626364 224.4490837724083 335.57375271071624Q225.91249842750204 343.5381055451687 230.07760167661502 349.5043345236278Q234.242704925728 355.498706091608 241.64420596975987 355.498706091608L241.64420596975987 355.498706091608Q250.84683274313784 355.498706091608 256.9537746692021 350.5456103359061Q263.0325740057454 345.5925145802041 268.37966601474176 336.7838840601206L268.37966601474176 336.7838840601206Q268.576664141389 334.2229084137066 269.44908441654104 317.59063800677575L269.44908441654104 317.59063800677575L269.6460825431883 312.66568484059485L269.95565102791966 285.0578045204609Q269.95565102791966 280.8082735027848 272.3196285476865 278.72572187822834Q274.71174865697435 276.64317025367177 277.27272430338843 276.64317025367177L277.27272430338843 276.64317025367177Q279.55227405459215 276.64317025367177 281.3815423734593 278.72572187822834Q283.2108106923265 280.8082735027848 283.2108106923265 284.4668101405191L283.2108106923265 284.4668101405191L281.6348256791486 363.20977562037126Q281.5222553210645 368.7538657560149 280.14326843453387 370.6957044329662Q278.76428154800317 372.60940052039643 275.30274303691607 372.60940052039643L275.30274303691607 372.60940052039643Q272.3196285476865 372.60940052039643 270.7999287135507 371.56812470811815Q269.25208628989384 370.52684889584 268.576664141389 367.234165921879Q267.8730994033632 363.913340358397 267.8730994033632 356.8776929781386L267.8730994033632 356.8776929781386Q267.8730994033632 351.8401694538736 268.0700975300104 348.6600568379969L268.0700975300104 348.6600568379969Q266.3815421587484 355.89270234490243 262.2727240886775 361.83078873384056Q258.1639060186066 367.7688751227787 252.9293843676943 371.11784327578164Q247.6948627167821 374.49495401830575 242.65733919251704 374.49495401830575L242.65733919251704 374.49495401830575Q223.15452465444076 374.49495401830575 216.4284457589137 358.7069612970058Q209.70236686338671 342.918968575706 209.70236686338671 322.6563041205618L209.70236686338671 322.6563041205618Q209.70236686338671 312.3561163558635 210.8843556232701 301.8307878749969Q212.06634438315353 291.2773168046093 214.88060333525686 283.9602435291405Q217.72300487688125 276.64317025367177 222.2539617897677 276.64317025367177L222.2539617897677 276.64317025367177Q227.7136241568482 276.64317025367177 227.7136241568482 283.6788176339302L227.7136241568482 283.6788176339302ZM336.6254456032483 349.0540530912913Q339.29899160774653 349.0540530912913 340.7342636733192 351.8401694538736Q342.1695357388919 354.5981432269349 342.1695357388919 358.3692502227534L342.1695357388919 358.3692502227534Q342.1695357388919 362.2247849871351 339.8618433981672 365.4048976030118Q337.5260084679214 368.5568676293676 334.1488977253973 370.3298507691927Q330.7999295723944 372.13097649853887 328.12638356789614 372.13097649853887L328.12638356789614 372.13097649853887Q318.41719018313955 372.13097649853887 313.9706610388163 365.8833216248694Q309.52413189449294 359.66380934072095 309.6367022525771 347.59063843619754L309.6367022525771 347.59063843619754L310.9031187810236 239.04467065357088Q310.9031187810236 232.51558988469108 312.7042445103697 228.5193421727043Q314.47722765019483 224.4949518711965 318.2201920564923 224.4949518711965L318.2201920564923 224.4949518711965Q320.69673993434327 224.4949518711965 322.3290101265632 227.42178118138398Q323.96128031878317 230.3486104915715 323.96128031878317 233.6975786445745L323.96128031878317 233.6975786445745L322.6948637903366 328.7913886361471L322.6948637903366 332.14035678915013Q322.6948637903366 341.45555392061226 324.0175654978253 347.59063843619754Q325.36840979483486 353.7257229517829 328.32338169454334 353.7257229517829L328.32338169454334 353.7257229517829Q329.61794081251094 353.7257229517829 330.49036108766296 353.13472857184115Q331.39092395233604 352.51559160237844 332.5729127122195 351.333602842495L332.5729127122195 351.333602842495Q333.75490147210286 350.15161408261156 334.5991791577339 349.616904881712Q335.44345684336486 349.0540530912913 336.6254456032483 349.0540530912913L336.6254456032483 349.0540530912913ZM371.74739732549824 283.6788176339302Q371.74739732549824 287.731350524959 369.7774160590259 297.8063975734891L369.7774160590259 297.8063975734891Q368.3984291724953 305.2360412070419 367.6948644344694 310.27356473130703Q367.0194422859646 315.3392308450931 367.0194422859646 320.3767543693581L367.0194422859646 320.3767543693581Q367.0194422859646 327.60939987626364 368.48285694105834 335.57375271071624Q369.97441418567314 343.5381055451687 374.1395174347861 349.5043345236278Q378.27647809437804 355.498706091608 385.70612172793096 355.498706091608L385.70612172793096 355.498706091608Q394.908748501309 355.498706091608 400.98754783785216 350.5456103359061Q407.06634717439545 345.5925145802041 412.4134391833919 336.7838840601206L412.4134391833919 336.7838840601206Q412.61043731003906 334.2229084137066 413.5110001747122 317.59063800677575L413.5110001747122 317.59063800677575L413.70799830135934 312.66568484059485L414.0175667860908 285.0578045204609Q414.0175667860908 280.8082735027848 416.3815443058576 278.72572187822834Q418.74552182562445 276.64317025367177 421.3346400615595 276.64317025367177L421.3346400615595 276.64317025367177Q423.61418981276324 276.64317025367177 425.44345813163045 278.72572187822834Q427.27272645049766 280.8082735027848 427.27272645049766 284.4668101405191L427.27272645049766 284.4668101405191L425.66859884779865 363.20977562037126Q425.5841710792356 368.7538657560149 424.2051841927049 370.6957044329662Q422.79805471665327 372.60940052039643 419.3365162055661 372.60940052039643L419.3365162055661 372.60940052039643Q416.3815443058576 372.60940052039643 414.83370188220067 371.56812470811815Q413.31400204806494 370.52684889584 412.61043731003906 367.234165921879Q411.93501516153424 363.913340358397 411.93501516153424 356.8776929781386L411.93501516153424 356.8776929781386Q411.93501516153424 351.8401694538736 412.1320132881815 348.6600568379969L412.1320132881815 348.6600568379969Q410.44345791691944 355.89270234490243 406.33463984684863 361.83078873384056Q402.2258217767777 367.7688751227787 396.99130012586545 371.11784327578164Q391.7567784749532 374.49495401830575 386.69111236116714 374.49495401830575L386.69111236116714 374.49495401830575Q367.21644041261186 374.49495401830575 360.4903615170848 358.7069612970058Q353.7642826215578 342.918968575706 353.7642826215578 322.6563041205618L353.7642826215578 322.6563041205618Q353.7642826215578 312.3561163558635 354.9462713814412 301.8307878749969Q356.1282601413246 291.2773168046093 358.94251909342796 283.9602435291405Q361.75677804553135 276.64317025367177 366.3158775479387 276.64317025367177L366.3158775479387 276.64317025367177Q371.74739732549824 276.64317025367177 371.74739732549824 283.6788176339302L371.74739732549824 283.6788176339302Z " fill="white" transform="matrix(1.1301370401609827,0,0,1.1301370401609827,0,-38.4703391832699)"/><path d="M528.6373903093107 239.4097257110738Q528.7125908438783 230.86193161522303 532.4726175722584 227.67844231852789Q536.2075774557826 224.49495302183274 541.4966817203707 224.49495302183274L541.4966817203707 224.49495302183274L554.280772596863 224.49495302183274Q565.6611201614268 224.49495302183274 578.4201441930633 231.814471719746Q591.2042350695557 239.13399041765925 599.8773633896857 252.3191508118455Q608.5755585546717 265.4792443611759 608.5755585546717 281.9732282763366L608.5755585546717 281.9732282763366Q608.5755585546717 298.1914768980828 599.8522965448299 309.59689130750246Q591.129034534988 321.00230571692214 578.4201441930633 326.69247949920396Q565.7363206959943 332.3826532814859 554.280772596863 332.3826532814859L554.280772596863 332.3826532814859Q544.0534998956691 332.3826532814859 539.8172031150275 331.5805142460981L539.8172031150275 331.5805142460981Q538.8646630105046 331.9314500740802 537.0097164911704 332.73358910946797L537.0097164911704 332.73358910946797Q535.2550373512596 333.5106612999999 534.9041015232775 333.5106612999999L534.9041015232775 333.5106612999999Q531.9963475199969 333.5106612999999 530.2166015352303 330.0263698650343Q528.4619223953197 326.56714527492466 527.8101844290671 321.578843148607Q527.1333796179587 316.5905410222895 527.3088475319497 312.10357579308914L527.3088475319497 312.10357579308914L528.6373903093107 239.4097257110738ZM557.3639945141347 315.2870650897843Q566.0120559894089 315.2870650897843 575.2115880515122 311.97824156880984Q584.4111201136155 308.6694180478354 590.75303186215 301.7008351779042Q597.1200104555403 294.7322523079731 597.1200104555403 284.354578537644L597.1200104555403 284.354578537644Q597.1200104555403 272.6984956796657 590.9034329312852 262.5714903578953Q584.6868554070301 252.44448503612483 575.0862538272329 246.45350911557253Q565.4605854025798 240.46253319502023 556.0354517367738 240.46253319502023L556.0354517367738 240.46253319502023Q552.8770292849345 240.46253319502023 547.9889945380403 240.68813479872304Q543.1009597911461 240.88866955756998 540.6193421504153 241.1644048509845L540.6193421504153 241.1644048509845Q539.2155988384867 249.08552782543862 539.2155988384867 258.5106614912447L539.2155988384867 258.5106614912447L539.2155988384867 273.6761026290445Q539.2155988384867 303.2800464038238 541.1457458923885 314.7355945029552L541.1457458923885 314.7355945029552Q541.421481185803 314.91106241694627 542.9004250322993 315.11159717579324Q544.4044357236513 315.2870650897843 546.2593822429855 315.2870650897843L546.2593822429855 315.2870650897843L557.3639945141347 315.2870650897843ZM655.9017616425493 333.9618645074055Q646.6270290458783 333.9618645074055 638.4301707780097 327.44448484488Q630.2333125101411 320.92710518235447 625.3452777632469 310.92543408486335Q620.4572430163529 300.8986961425164 620.4572430163529 291.2228940281517L620.4572430163529 291.2228940281517Q620.4572430163529 275.88198497636085 625.7964809706526 265.9304475685815Q631.1357189249524 255.97891016080214 639.6333793310914 251.41674439703428Q648.1310397372304 246.87964547812228 658.0073766104422 246.87964547812228L658.0073766104422 246.87964547812228Q668.4853177601947 246.87964547812228 676.0805717515225 252.3191508118455Q683.6507588979945 257.7335893007129 687.6614540749332 267.7352603982039Q691.672149251872 277.736931495695 691.672149251872 291.2228940281517L691.672149251872 291.2228940281517Q691.672149251872 303.45551431781496 686.6086465909868 313.2566506564591Q681.5451439301016 323.0327201502473 673.2981519725213 328.49729232882646Q665.0511600149409 333.9618645074055 655.9017616425493 333.9618645074055L655.9017616425493 333.9618645074055ZM680.1163337733171 290.42075499276393Q680.1163337733171 282.5748325528774 677.5344487531628 276.50865609775747Q674.9274968881526 270.4174127977817 670.3402642795289 267.0333887422396Q665.7530316709051 263.62429784184167 660.112991578335 263.62429784184167L660.112991578335 263.62429784184167Q653.1694755532598 263.62429784184167 646.6270290458783 266.582185534834Q640.1096493833529 269.5400732278264 635.9736199821348 275.3555812343876Q631.8375905809166 281.17108924094885 631.8375905809166 289.36794750881745L631.8375905809166 289.36794750881745Q631.8375905809166 296.23626299932516 635.171480946747 302.8037763515624Q638.5304381574332 309.3712897037997 643.8947429565889 313.45718541530596Q649.2841146006003 317.5681479716683 654.9993552277381 317.5681479716683L654.9993552277381 317.5681479716683Q661.5418017351194 317.5681479716683 667.307176051969 314.30945814040547Q673.0725503688184 311.05076830914277 676.6069754934957 304.90939131945527Q680.1163337733171 298.7930811746236 680.1163337733171 290.42075499276393L680.1163337733171 290.42075499276393ZM749.0501571269524 356.9481612402359Q753.1861865281705 356.9481612402359 755.3920688754869 353.138000822144Q757.5979512228032 349.30277355919634 758.375023413335 343.91340191518486Q759.1771624487228 338.5490971160292 759.7787667252637 329.6503671921963L759.7787667252637 329.6503671921963Q760.1547693981016 323.45885651279707 760.5057052260838 320.55110250951645L760.5057052260838 320.55110250951645Q759.5280982767049 324.53673084159936 755.7680715483249 327.619952758871Q752.0331116648006 330.7031746761428 747.0949432281948 332.33251959177414Q742.1567747915889 333.9618645074055 737.9455448558032 333.9618645074055L737.9455448558032 333.9618645074055Q722.0782320620391 333.9618645074055 713.8312401044589 324.2108618584731Q705.5842481468784 314.4849260543966 705.5842481468784 295.25865604994635L705.5842481468784 295.25865604994635Q705.5842481468784 282.75030046686845 709.2941411855468 271.8211561097103Q713.0040342242152 260.8920117525521 720.5240876809753 254.19916417603554Q728.0692079825915 247.50631659951895 739.0735528743172 247.50631659951895L739.0735528743172 247.50631659951895Q747.7216143495914 247.50631659951895 755.9184726174601 253.27169091636847Q764.1153308853287 259.0621320780738 769.1788335462139 267.55979248421284Q774.2423362070991 276.0574528903519 774.2423362070991 283.72790741624726L774.2423362070991 283.72790741624726L772.562857601756 325.4140704115547L772.4876570671884 326.6423458094922Q772.0364538597828 329.0236960707997 771.058846910404 337.4712227872269L771.058846910404 337.4712227872269Q769.6551035984754 349.3779740937639 767.9004244585647 356.7476264813889Q766.145745318654 364.09221202415813 761.4081116408951 369.30611575417845Q756.695544807992 374.49495263934307 747.9722827981501 374.49495263934307L747.9722827981501 374.49495263934307Q744.5381250528962 374.49495263934307 739.0735528743172 373.3168109311173Q733.6089806957382 372.1136023780357 729.2473496908171 369.30611575417845Q724.8857186858963 366.4735622854655 724.8857186858963 361.8111291422741L724.8857186858963 361.8111291422741Q724.8857186858963 357.39936444764146 726.0889272389779 355.11828156575757Q727.2670689472037 352.81213183901775 730.4505582438989 352.81213183901775L730.4505582438989 352.81213183901775Q731.2276304344307 352.81213183901775 731.9044352455392 353.0878671324323Q732.5561732117917 353.338535580991 733.1828443331884 353.78973878839656L733.1828443331884 353.78973878839656Q735.3887266805048 355.1934821003251 738.6474165117675 356.07082167028057Q741.9061063430302 356.9481612402359 749.0501571269524 356.9481612402359L749.0501571269524 356.9481612402359ZM739.875691909705 317.5681479716683Q745.340264088284 317.5681479716683 749.9274966969078 313.6075864844412Q754.5147293055315 309.6470249972142 757.5979512228032 303.8565838355088Q760.6811731400749 298.0912095186593 762.0849164520034 292.4511694260891L762.0849164520034 292.4511694260891Q761.1073095026246 284.78071490019374 759.1270287590111 278.78973897964147Q757.1467480153976 272.7987630590891 752.7851170104766 268.66273365787106Q748.4234860055558 264.5267042566529 741.0287667730748 264.5267042566529L741.0287667730748 264.5267042566529Q728.9465475525468 264.5267042566529 723.4819753739677 272.7987630590891Q718.0174031953886 281.07082186152536 717.8419352813976 294.1306480314323L717.8419352813976 294.1306480314323Q717.8419352813976 307.0902068219157 723.5822427533913 312.3291773967919Q729.2974833805289 317.5681479716683 739.875691909705 317.5681479716683L739.875691909705 317.5681479716683Z " fill="white" transform="matrix(1.1301370401609827,0,0,1.1301370401609827,0,-38.4703391832699)"/></g></svg>